<mxfile host="app.diagrams.net" modified="2024-01-02T08:29:29.447Z" agent="Mozilla/5.0 (Macintosh; Intel Mac OS X 10_15_7) AppleWebKit/605.1.15 (KHTML, like Gecko) Version/16.2 Safari/605.1.15" etag="NnKCWZcLK9-hp9dg5Wn5" version="22.1.16" type="device">
  <diagram name="Page-1" id="80Xx5_V7AYoYYCBFcPBS">
    <mxGraphModel dx="752" dy="622" grid="1" gridSize="10" guides="1" tooltips="1" connect="1" arrows="1" fold="1" page="1" pageScale="1" pageWidth="850" pageHeight="1100" math="0" shadow="0">
      <root>
        <mxCell id="0" />
        <mxCell id="1" parent="0" />
        <mxCell id="6V_RxtZbmtCBJ1EOpkRF-52" value="CacheFacade" style="swimlane;fontStyle=1;align=center;verticalAlign=top;childLayout=stackLayout;horizontal=1;startSize=33;horizontalStack=0;resizeParent=1;resizeParentMax=0;resizeLast=0;collapsible=1;marginBottom=0;whiteSpace=wrap;html=1;" vertex="1" parent="1">
          <mxGeometry x="509" y="169" width="260" height="140" as="geometry" />
        </mxCell>
        <mxCell id="6V_RxtZbmtCBJ1EOpkRF-53" value="+ cache_zone: Cache_Zone&lt;br&gt;+ cache_resource: Cache_Resource&lt;br&gt;......" style="text;strokeColor=none;fillColor=none;align=left;verticalAlign=top;spacingLeft=4;spacingRight=4;overflow=hidden;rotatable=0;points=[[0,0.5],[1,0.5]];portConstraint=eastwest;whiteSpace=wrap;html=1;" vertex="1" parent="6V_RxtZbmtCBJ1EOpkRF-52">
          <mxGeometry y="33" width="260" height="57" as="geometry" />
        </mxCell>
        <mxCell id="6V_RxtZbmtCBJ1EOpkRF-54" value="" style="line;strokeWidth=1;fillColor=none;align=left;verticalAlign=middle;spacingTop=-1;spacingLeft=3;spacingRight=3;rotatable=0;labelPosition=right;points=[];portConstraint=eastwest;strokeColor=inherit;" vertex="1" parent="6V_RxtZbmtCBJ1EOpkRF-52">
          <mxGeometry y="90" width="260" height="8" as="geometry" />
        </mxCell>
        <mxCell id="6V_RxtZbmtCBJ1EOpkRF-55" value="+ getZone(): Zone&lt;br&gt;+ getResource(): Resource&lt;br&gt;......" style="text;strokeColor=none;fillColor=none;align=left;verticalAlign=top;spacingLeft=4;spacingRight=4;overflow=hidden;rotatable=0;points=[[0,0.5],[1,0.5]];portConstraint=eastwest;whiteSpace=wrap;html=1;" vertex="1" parent="6V_RxtZbmtCBJ1EOpkRF-52">
          <mxGeometry y="98" width="260" height="42" as="geometry" />
        </mxCell>
        <mxCell id="6V_RxtZbmtCBJ1EOpkRF-91" style="edgeStyle=orthogonalEdgeStyle;rounded=0;orthogonalLoop=1;jettySize=auto;html=1;exitX=0.5;exitY=0;exitDx=0;exitDy=0;dashed=1;endArrow=block;endFill=0;" edge="1" parent="1" source="6V_RxtZbmtCBJ1EOpkRF-92">
          <mxGeometry relative="1" as="geometry">
            <mxPoint x="200" y="244" as="targetPoint" />
          </mxGeometry>
        </mxCell>
        <mxCell id="6V_RxtZbmtCBJ1EOpkRF-92" value="Cache_Zone" style="swimlane;fontStyle=1;align=center;verticalAlign=top;childLayout=stackLayout;horizontal=1;startSize=26;horizontalStack=0;resizeParent=1;resizeParentMax=0;resizeLast=0;collapsible=1;marginBottom=0;whiteSpace=wrap;html=1;" vertex="1" parent="1">
          <mxGeometry x="20" y="334" width="180" height="86" as="geometry" />
        </mxCell>
        <mxCell id="6V_RxtZbmtCBJ1EOpkRF-93" value="..." style="text;strokeColor=none;fillColor=none;align=left;verticalAlign=top;spacingLeft=4;spacingRight=4;overflow=hidden;rotatable=0;points=[[0,0.5],[1,0.5]];portConstraint=eastwest;whiteSpace=wrap;html=1;" vertex="1" parent="6V_RxtZbmtCBJ1EOpkRF-92">
          <mxGeometry y="26" width="180" height="26" as="geometry" />
        </mxCell>
        <mxCell id="6V_RxtZbmtCBJ1EOpkRF-94" value="" style="line;strokeWidth=1;fillColor=none;align=left;verticalAlign=middle;spacingTop=-1;spacingLeft=3;spacingRight=3;rotatable=0;labelPosition=right;points=[];portConstraint=eastwest;strokeColor=inherit;" vertex="1" parent="6V_RxtZbmtCBJ1EOpkRF-92">
          <mxGeometry y="52" width="180" height="8" as="geometry" />
        </mxCell>
        <mxCell id="6V_RxtZbmtCBJ1EOpkRF-95" value="+ getClone(string type): object" style="text;strokeColor=none;fillColor=none;align=left;verticalAlign=top;spacingLeft=4;spacingRight=4;overflow=hidden;rotatable=0;points=[[0,0.5],[1,0.5]];portConstraint=eastwest;whiteSpace=wrap;html=1;" vertex="1" parent="6V_RxtZbmtCBJ1EOpkRF-92">
          <mxGeometry y="60" width="180" height="26" as="geometry" />
        </mxCell>
        <mxCell id="6V_RxtZbmtCBJ1EOpkRF-96" style="edgeStyle=orthogonalEdgeStyle;rounded=0;orthogonalLoop=1;jettySize=auto;html=1;exitX=0.5;exitY=0;exitDx=0;exitDy=0;dashed=1;endArrow=none;endFill=0;" edge="1" parent="1" source="6V_RxtZbmtCBJ1EOpkRF-97">
          <mxGeometry relative="1" as="geometry">
            <mxPoint x="201" y="289" as="targetPoint" />
            <Array as="points">
              <mxPoint x="280" y="289" />
            </Array>
          </mxGeometry>
        </mxCell>
        <mxCell id="6V_RxtZbmtCBJ1EOpkRF-102" style="edgeStyle=orthogonalEdgeStyle;rounded=0;orthogonalLoop=1;jettySize=auto;html=1;dashed=1;endArrow=none;endFill=0;" edge="1" parent="1">
          <mxGeometry relative="1" as="geometry">
            <mxPoint x="281" y="289" as="targetPoint" />
            <mxPoint x="420" y="334" as="sourcePoint" />
            <Array as="points">
              <mxPoint x="420" y="334" />
              <mxPoint x="420" y="289" />
            </Array>
          </mxGeometry>
        </mxCell>
        <mxCell id="6V_RxtZbmtCBJ1EOpkRF-103" style="edgeStyle=orthogonalEdgeStyle;rounded=0;orthogonalLoop=1;jettySize=auto;html=1;exitX=0;exitY=0.5;exitDx=0;exitDy=0;entryX=1;entryY=0.25;entryDx=0;entryDy=0;" edge="1" parent="1" source="6V_RxtZbmtCBJ1EOpkRF-53" target="6V_RxtZbmtCBJ1EOpkRF-116">
          <mxGeometry relative="1" as="geometry">
            <mxPoint x="280" y="213" as="targetPoint" />
          </mxGeometry>
        </mxCell>
        <mxCell id="6V_RxtZbmtCBJ1EOpkRF-104" value="创建" style="text;html=1;align=center;verticalAlign=middle;resizable=0;points=[];autosize=1;strokeColor=none;fillColor=none;" vertex="1" parent="1">
          <mxGeometry x="458" y="200" width="50" height="30" as="geometry" />
        </mxCell>
        <mxCell id="6V_RxtZbmtCBJ1EOpkRF-108" value="" style="shape=module;align=left;spacingLeft=20;align=center;verticalAlign=top;whiteSpace=wrap;html=1;" vertex="1" parent="1">
          <mxGeometry x="325" y="70" width="85" height="50" as="geometry" />
        </mxCell>
        <mxCell id="6V_RxtZbmtCBJ1EOpkRF-109" value="外部系统" style="text;html=1;align=center;verticalAlign=middle;resizable=0;points=[];autosize=1;strokeColor=none;fillColor=none;" vertex="1" parent="1">
          <mxGeometry x="340" y="80" width="70" height="30" as="geometry" />
        </mxCell>
        <mxCell id="6V_RxtZbmtCBJ1EOpkRF-110" style="edgeStyle=orthogonalEdgeStyle;rounded=0;orthogonalLoop=1;jettySize=auto;html=1;exitX=0.5;exitY=0;exitDx=0;exitDy=0;entryX=1.014;entryY=0.633;entryDx=0;entryDy=0;entryPerimeter=0;endArrow=none;endFill=0;startArrow=classic;startFill=1;dashed=1;" edge="1" parent="1" source="6V_RxtZbmtCBJ1EOpkRF-52" target="6V_RxtZbmtCBJ1EOpkRF-109">
          <mxGeometry relative="1" as="geometry" />
        </mxCell>
        <mxCell id="6V_RxtZbmtCBJ1EOpkRF-111" value="Use" style="text;html=1;align=center;verticalAlign=middle;resizable=0;points=[];autosize=1;strokeColor=none;fillColor=none;" vertex="1" parent="1">
          <mxGeometry x="520" y="70" width="40" height="30" as="geometry" />
        </mxCell>
        <mxCell id="6V_RxtZbmtCBJ1EOpkRF-112" value="......" style="text;html=1;align=center;verticalAlign=middle;resizable=0;points=[];autosize=1;strokeColor=none;fillColor=none;" vertex="1" parent="1">
          <mxGeometry x="405" y="360" width="40" height="30" as="geometry" />
        </mxCell>
        <mxCell id="6V_RxtZbmtCBJ1EOpkRF-113" value="&lt;p style=&quot;margin:0px;margin-top:4px;text-align:center;&quot;&gt;&lt;i&gt;&amp;lt;&amp;lt;Interface&amp;gt;&amp;gt;&lt;/i&gt;&lt;br&gt;&lt;b&gt;ICache&lt;/b&gt;&lt;/p&gt;&lt;hr size=&quot;1&quot;&gt;&lt;p style=&quot;margin:0px;margin-left:4px;&quot;&gt;+ getClone(string type): object&lt;/p&gt;" style="verticalAlign=top;align=left;overflow=fill;fontSize=12;fontFamily=Helvetica;html=1;whiteSpace=wrap;" vertex="1" parent="1">
          <mxGeometry x="90" y="170" width="190" height="70" as="geometry" />
        </mxCell>
        <mxCell id="6V_RxtZbmtCBJ1EOpkRF-116" value="" style="swimlane;startSize=0;" vertex="1" parent="1">
          <mxGeometry x="10" y="150" width="440" height="320" as="geometry" />
        </mxCell>
        <mxCell id="6V_RxtZbmtCBJ1EOpkRF-117" value="缓存系统" style="text;html=1;align=center;verticalAlign=middle;resizable=0;points=[];autosize=1;strokeColor=none;fillColor=none;" vertex="1" parent="6V_RxtZbmtCBJ1EOpkRF-116">
          <mxGeometry y="20" width="70" height="30" as="geometry" />
        </mxCell>
        <mxCell id="6V_RxtZbmtCBJ1EOpkRF-97" value="Cache_Resource" style="swimlane;fontStyle=1;align=center;verticalAlign=top;childLayout=stackLayout;horizontal=1;startSize=26;horizontalStack=0;resizeParent=1;resizeParentMax=0;resizeLast=0;collapsible=1;marginBottom=0;whiteSpace=wrap;html=1;" vertex="1" parent="6V_RxtZbmtCBJ1EOpkRF-116">
          <mxGeometry x="210" y="184" width="180" height="86" as="geometry" />
        </mxCell>
        <mxCell id="6V_RxtZbmtCBJ1EOpkRF-98" value="..." style="text;strokeColor=none;fillColor=none;align=left;verticalAlign=top;spacingLeft=4;spacingRight=4;overflow=hidden;rotatable=0;points=[[0,0.5],[1,0.5]];portConstraint=eastwest;whiteSpace=wrap;html=1;" vertex="1" parent="6V_RxtZbmtCBJ1EOpkRF-97">
          <mxGeometry y="26" width="180" height="26" as="geometry" />
        </mxCell>
        <mxCell id="6V_RxtZbmtCBJ1EOpkRF-99" value="" style="line;strokeWidth=1;fillColor=none;align=left;verticalAlign=middle;spacingTop=-1;spacingLeft=3;spacingRight=3;rotatable=0;labelPosition=right;points=[];portConstraint=eastwest;strokeColor=inherit;" vertex="1" parent="6V_RxtZbmtCBJ1EOpkRF-97">
          <mxGeometry y="52" width="180" height="8" as="geometry" />
        </mxCell>
        <mxCell id="6V_RxtZbmtCBJ1EOpkRF-100" value="+ getClone(string type): object" style="text;strokeColor=none;fillColor=none;align=left;verticalAlign=top;spacingLeft=4;spacingRight=4;overflow=hidden;rotatable=0;points=[[0,0.5],[1,0.5]];portConstraint=eastwest;whiteSpace=wrap;html=1;" vertex="1" parent="6V_RxtZbmtCBJ1EOpkRF-97">
          <mxGeometry y="60" width="180" height="26" as="geometry" />
        </mxCell>
      </root>
    </mxGraphModel>
  </diagram>
</mxfile>
